G04 #@! TF.FileFunction,Copper,L2,Bot,Signal*
%FSLAX46Y46*%
G04 Gerber Fmt 4.6, Leading zero omitted, Abs format (unit mm)*
G04 Created by KiCad (PCBNEW 4.0.5+dfsg1-4) date Sat Aug  4 04:34:50 2018*
%MOMM*%
%LPD*%
G01*
G04 APERTURE LIST*
%ADD10C,0.100000*%
%ADD11C,2.400000*%
%ADD12R,2.400000X2.400000*%
%ADD13R,1.700000X1.700000*%
%ADD14O,1.700000X1.700000*%
%ADD15C,0.600000*%
%ADD16C,0.500000*%
%ADD17C,0.254000*%
G04 APERTURE END LIST*
D10*
D11*
X136300000Y-103300000D03*
D12*
X136300000Y-106800000D03*
D13*
X131200000Y-99500000D03*
X124500000Y-99250000D03*
D14*
X124500000Y-101790000D03*
X124500000Y-104330000D03*
D11*
X136300000Y-96000000D03*
X136300000Y-92500000D03*
D12*
X136300000Y-99500000D03*
D15*
X126900000Y-106800000D03*
D16*
X124500000Y-104330000D02*
X126030000Y-104330000D01*
X126900000Y-105200000D02*
X126900000Y-106800000D01*
X126030000Y-104330000D02*
X126900000Y-105200000D01*
X136300000Y-106600000D02*
X136300000Y-106800000D01*
X124500000Y-99250000D02*
X128050000Y-99250000D01*
X134800000Y-92500000D02*
X136300000Y-92500000D01*
X128050000Y-99250000D02*
X134800000Y-92500000D01*
D17*
G36*
X140290000Y-107990000D02*
X138135000Y-107990000D01*
X138135000Y-107085750D01*
X137976250Y-106927000D01*
X136427000Y-106927000D01*
X136427000Y-106947000D01*
X136173000Y-106947000D01*
X136173000Y-106927000D01*
X134623750Y-106927000D01*
X134465000Y-107085750D01*
X134465000Y-107990000D01*
X126510000Y-107990000D01*
X126510000Y-105900000D01*
X126455954Y-105628295D01*
X126302046Y-105397954D01*
X126071705Y-105244046D01*
X125800000Y-105190000D01*
X125686822Y-105190000D01*
X125771645Y-105096924D01*
X125941476Y-104686890D01*
X125820155Y-104457000D01*
X124627000Y-104457000D01*
X124627000Y-104477000D01*
X124373000Y-104477000D01*
X124373000Y-104457000D01*
X124353000Y-104457000D01*
X124353000Y-104203000D01*
X124373000Y-104203000D01*
X124373000Y-104183000D01*
X124627000Y-104183000D01*
X124627000Y-104203000D01*
X125820155Y-104203000D01*
X125941476Y-103973110D01*
X125813200Y-103663403D01*
X134464682Y-103663403D01*
X134743455Y-104338086D01*
X135259199Y-104854730D01*
X135524758Y-104965000D01*
X134973690Y-104965000D01*
X134740301Y-105061673D01*
X134561673Y-105240302D01*
X134465000Y-105473691D01*
X134465000Y-106514250D01*
X134623750Y-106673000D01*
X136173000Y-106673000D01*
X136173000Y-106653000D01*
X136427000Y-106653000D01*
X136427000Y-106673000D01*
X137976250Y-106673000D01*
X138135000Y-106514250D01*
X138135000Y-105473691D01*
X138038327Y-105240302D01*
X137859699Y-105061673D01*
X137626310Y-104965000D01*
X137075605Y-104965000D01*
X137338086Y-104856545D01*
X137854730Y-104340801D01*
X138134681Y-103666605D01*
X138135318Y-102936597D01*
X137856545Y-102261914D01*
X137340801Y-101745270D01*
X136666605Y-101465319D01*
X135936597Y-101464682D01*
X135261914Y-101743455D01*
X134745270Y-102259199D01*
X134465319Y-102933395D01*
X134464682Y-103663403D01*
X125813200Y-103663403D01*
X125771645Y-103563076D01*
X125381358Y-103134817D01*
X125238447Y-103067702D01*
X125579147Y-102840054D01*
X125901054Y-102358285D01*
X126014093Y-101790000D01*
X125901054Y-101221715D01*
X125579147Y-100739946D01*
X125537548Y-100712150D01*
X125585317Y-100703162D01*
X125801441Y-100564090D01*
X125946431Y-100351890D01*
X125990352Y-100135000D01*
X128049995Y-100135000D01*
X128050000Y-100135001D01*
X128332484Y-100078810D01*
X128388675Y-100067633D01*
X128675790Y-99875790D01*
X129702560Y-98849020D01*
X129702560Y-100350000D01*
X129746838Y-100585317D01*
X129885910Y-100801441D01*
X130098110Y-100946431D01*
X130350000Y-100997440D01*
X132050000Y-100997440D01*
X132285317Y-100953162D01*
X132501441Y-100814090D01*
X132646431Y-100601890D01*
X132697440Y-100350000D01*
X132697440Y-99785750D01*
X134465000Y-99785750D01*
X134465000Y-100826309D01*
X134561673Y-101059698D01*
X134740301Y-101238327D01*
X134973690Y-101335000D01*
X136014250Y-101335000D01*
X136173000Y-101176250D01*
X136173000Y-99627000D01*
X136427000Y-99627000D01*
X136427000Y-101176250D01*
X136585750Y-101335000D01*
X137626310Y-101335000D01*
X137859699Y-101238327D01*
X138038327Y-101059698D01*
X138135000Y-100826309D01*
X138135000Y-99785750D01*
X137976250Y-99627000D01*
X136427000Y-99627000D01*
X136173000Y-99627000D01*
X134623750Y-99627000D01*
X134465000Y-99785750D01*
X132697440Y-99785750D01*
X132697440Y-98650000D01*
X132653162Y-98414683D01*
X132514090Y-98198559D01*
X132301890Y-98053569D01*
X132050000Y-98002560D01*
X130549020Y-98002560D01*
X134878356Y-93673223D01*
X135259199Y-94054730D01*
X135729785Y-94250135D01*
X135261914Y-94443455D01*
X134745270Y-94959199D01*
X134465319Y-95633395D01*
X134464682Y-96363403D01*
X134743455Y-97038086D01*
X135259199Y-97554730D01*
X135524758Y-97665000D01*
X134973690Y-97665000D01*
X134740301Y-97761673D01*
X134561673Y-97940302D01*
X134465000Y-98173691D01*
X134465000Y-99214250D01*
X134623750Y-99373000D01*
X136173000Y-99373000D01*
X136173000Y-99353000D01*
X136427000Y-99353000D01*
X136427000Y-99373000D01*
X137976250Y-99373000D01*
X138135000Y-99214250D01*
X138135000Y-98173691D01*
X138038327Y-97940302D01*
X137859699Y-97761673D01*
X137626310Y-97665000D01*
X137075605Y-97665000D01*
X137338086Y-97556545D01*
X137854730Y-97040801D01*
X138134681Y-96366605D01*
X138135318Y-95636597D01*
X137856545Y-94961914D01*
X137340801Y-94445270D01*
X136870215Y-94249865D01*
X137338086Y-94056545D01*
X137854730Y-93540801D01*
X138134681Y-92866605D01*
X138135318Y-92136597D01*
X137856545Y-91461914D01*
X137605070Y-91210000D01*
X140290000Y-91210000D01*
X140290000Y-107990000D01*
X140290000Y-107990000D01*
G37*
X140290000Y-107990000D02*
X138135000Y-107990000D01*
X138135000Y-107085750D01*
X137976250Y-106927000D01*
X136427000Y-106927000D01*
X136427000Y-106947000D01*
X136173000Y-106947000D01*
X136173000Y-106927000D01*
X134623750Y-106927000D01*
X134465000Y-107085750D01*
X134465000Y-107990000D01*
X126510000Y-107990000D01*
X126510000Y-105900000D01*
X126455954Y-105628295D01*
X126302046Y-105397954D01*
X126071705Y-105244046D01*
X125800000Y-105190000D01*
X125686822Y-105190000D01*
X125771645Y-105096924D01*
X125941476Y-104686890D01*
X125820155Y-104457000D01*
X124627000Y-104457000D01*
X124627000Y-104477000D01*
X124373000Y-104477000D01*
X124373000Y-104457000D01*
X124353000Y-104457000D01*
X124353000Y-104203000D01*
X124373000Y-104203000D01*
X124373000Y-104183000D01*
X124627000Y-104183000D01*
X124627000Y-104203000D01*
X125820155Y-104203000D01*
X125941476Y-103973110D01*
X125813200Y-103663403D01*
X134464682Y-103663403D01*
X134743455Y-104338086D01*
X135259199Y-104854730D01*
X135524758Y-104965000D01*
X134973690Y-104965000D01*
X134740301Y-105061673D01*
X134561673Y-105240302D01*
X134465000Y-105473691D01*
X134465000Y-106514250D01*
X134623750Y-106673000D01*
X136173000Y-106673000D01*
X136173000Y-106653000D01*
X136427000Y-106653000D01*
X136427000Y-106673000D01*
X137976250Y-106673000D01*
X138135000Y-106514250D01*
X138135000Y-105473691D01*
X138038327Y-105240302D01*
X137859699Y-105061673D01*
X137626310Y-104965000D01*
X137075605Y-104965000D01*
X137338086Y-104856545D01*
X137854730Y-104340801D01*
X138134681Y-103666605D01*
X138135318Y-102936597D01*
X137856545Y-102261914D01*
X137340801Y-101745270D01*
X136666605Y-101465319D01*
X135936597Y-101464682D01*
X135261914Y-101743455D01*
X134745270Y-102259199D01*
X134465319Y-102933395D01*
X134464682Y-103663403D01*
X125813200Y-103663403D01*
X125771645Y-103563076D01*
X125381358Y-103134817D01*
X125238447Y-103067702D01*
X125579147Y-102840054D01*
X125901054Y-102358285D01*
X126014093Y-101790000D01*
X125901054Y-101221715D01*
X125579147Y-100739946D01*
X125537548Y-100712150D01*
X125585317Y-100703162D01*
X125801441Y-100564090D01*
X125946431Y-100351890D01*
X125990352Y-100135000D01*
X128049995Y-100135000D01*
X128050000Y-100135001D01*
X128332484Y-100078810D01*
X128388675Y-100067633D01*
X128675790Y-99875790D01*
X129702560Y-98849020D01*
X129702560Y-100350000D01*
X129746838Y-100585317D01*
X129885910Y-100801441D01*
X130098110Y-100946431D01*
X130350000Y-100997440D01*
X132050000Y-100997440D01*
X132285317Y-100953162D01*
X132501441Y-100814090D01*
X132646431Y-100601890D01*
X132697440Y-100350000D01*
X132697440Y-99785750D01*
X134465000Y-99785750D01*
X134465000Y-100826309D01*
X134561673Y-101059698D01*
X134740301Y-101238327D01*
X134973690Y-101335000D01*
X136014250Y-101335000D01*
X136173000Y-101176250D01*
X136173000Y-99627000D01*
X136427000Y-99627000D01*
X136427000Y-101176250D01*
X136585750Y-101335000D01*
X137626310Y-101335000D01*
X137859699Y-101238327D01*
X138038327Y-101059698D01*
X138135000Y-100826309D01*
X138135000Y-99785750D01*
X137976250Y-99627000D01*
X136427000Y-99627000D01*
X136173000Y-99627000D01*
X134623750Y-99627000D01*
X134465000Y-99785750D01*
X132697440Y-99785750D01*
X132697440Y-98650000D01*
X132653162Y-98414683D01*
X132514090Y-98198559D01*
X132301890Y-98053569D01*
X132050000Y-98002560D01*
X130549020Y-98002560D01*
X134878356Y-93673223D01*
X135259199Y-94054730D01*
X135729785Y-94250135D01*
X135261914Y-94443455D01*
X134745270Y-94959199D01*
X134465319Y-95633395D01*
X134464682Y-96363403D01*
X134743455Y-97038086D01*
X135259199Y-97554730D01*
X135524758Y-97665000D01*
X134973690Y-97665000D01*
X134740301Y-97761673D01*
X134561673Y-97940302D01*
X134465000Y-98173691D01*
X134465000Y-99214250D01*
X134623750Y-99373000D01*
X136173000Y-99373000D01*
X136173000Y-99353000D01*
X136427000Y-99353000D01*
X136427000Y-99373000D01*
X137976250Y-99373000D01*
X138135000Y-99214250D01*
X138135000Y-98173691D01*
X138038327Y-97940302D01*
X137859699Y-97761673D01*
X137626310Y-97665000D01*
X137075605Y-97665000D01*
X137338086Y-97556545D01*
X137854730Y-97040801D01*
X138134681Y-96366605D01*
X138135318Y-95636597D01*
X137856545Y-94961914D01*
X137340801Y-94445270D01*
X136870215Y-94249865D01*
X137338086Y-94056545D01*
X137854730Y-93540801D01*
X138134681Y-92866605D01*
X138135318Y-92136597D01*
X137856545Y-91461914D01*
X137605070Y-91210000D01*
X140290000Y-91210000D01*
X140290000Y-107990000D01*
M02*
