G04 #@! TF.FileFunction,Legend,Top*
%FSLAX46Y46*%
G04 Gerber Fmt 4.6, Leading zero omitted, Abs format (unit mm)*
G04 Created by KiCad (PCBNEW 4.0.5+dfsg1-4) date Sat Aug  4 04:34:50 2018*
%MOMM*%
%LPD*%
G01*
G04 APERTURE LIST*
%ADD10C,0.100000*%
%ADD11C,0.120000*%
%ADD12C,0.150000*%
G04 APERTURE END LIST*
D10*
D11*
X127350000Y-107200000D02*
X128050000Y-107200000D01*
X128050000Y-108400000D02*
X127350000Y-108400000D01*
X129550000Y-108400000D02*
X132850000Y-108400000D01*
X132850000Y-108400000D02*
X132850000Y-103000000D01*
X129550000Y-108400000D02*
X129550000Y-103000000D01*
X126400000Y-101300000D02*
X126400000Y-103700000D01*
X129200000Y-101300000D02*
X129200000Y-103700000D01*
D12*
X140400000Y-105050000D02*
X140800000Y-105050000D01*
X139300000Y-108550000D02*
X139300000Y-101550000D01*
X140400000Y-108550000D02*
X140400000Y-101550000D01*
X133200000Y-108550000D02*
X140800000Y-108550000D01*
X140800000Y-101550000D02*
X133200000Y-101550000D01*
X133200000Y-101550000D02*
X133200000Y-108550000D01*
D11*
X129870000Y-98060000D02*
X132530000Y-98060000D01*
X132530000Y-98060000D02*
X132530000Y-95400000D01*
X132530000Y-95400000D02*
X129870000Y-95400000D01*
X129870000Y-95400000D02*
X129870000Y-98060000D01*
X130820000Y-95400000D02*
X130820000Y-89400000D01*
X130820000Y-89400000D02*
X131580000Y-89400000D01*
X131580000Y-89400000D02*
X131580000Y-95400000D01*
X130880000Y-95400000D02*
X130880000Y-89400000D01*
X131000000Y-95400000D02*
X131000000Y-89400000D01*
X131120000Y-95400000D02*
X131120000Y-89400000D01*
X131240000Y-95400000D02*
X131240000Y-89400000D01*
X131360000Y-95400000D02*
X131360000Y-89400000D01*
X131480000Y-95400000D02*
X131480000Y-89400000D01*
X130820000Y-98390000D02*
X130820000Y-98060000D01*
X131580000Y-98390000D02*
X131580000Y-98060000D01*
X131200000Y-100770000D02*
X129930000Y-100770000D01*
X129930000Y-100770000D02*
X129930000Y-99500000D01*
D12*
X140400000Y-97800000D02*
X140800000Y-97800000D01*
X140400000Y-94200000D02*
X140800000Y-94200000D01*
X139300000Y-101300000D02*
X139300000Y-90700000D01*
X140400000Y-101300000D02*
X140400000Y-90700000D01*
X133200000Y-101300000D02*
X140800000Y-101300000D01*
X140800000Y-90700000D02*
X133200000Y-90700000D01*
X133200000Y-90700000D02*
X133200000Y-101300000D01*
X127575000Y-106867857D02*
X127539286Y-106903571D01*
X127432143Y-106939286D01*
X127360714Y-106939286D01*
X127253571Y-106903571D01*
X127182143Y-106832143D01*
X127146428Y-106760714D01*
X127110714Y-106617857D01*
X127110714Y-106510714D01*
X127146428Y-106367857D01*
X127182143Y-106296429D01*
X127253571Y-106225000D01*
X127360714Y-106189286D01*
X127432143Y-106189286D01*
X127539286Y-106225000D01*
X127575000Y-106260714D01*
X128289286Y-106939286D02*
X127860714Y-106939286D01*
X128075000Y-106939286D02*
X128075000Y-106189286D01*
X128003571Y-106296429D01*
X127932143Y-106367857D01*
X127860714Y-106403571D01*
X130461905Y-105552381D02*
X130461905Y-104552381D01*
X130700000Y-104552381D01*
X130842858Y-104600000D01*
X130938096Y-104695238D01*
X130985715Y-104790476D01*
X131033334Y-104980952D01*
X131033334Y-105123810D01*
X130985715Y-105314286D01*
X130938096Y-105409524D01*
X130842858Y-105504762D01*
X130700000Y-105552381D01*
X130461905Y-105552381D01*
X131985715Y-105552381D02*
X131414286Y-105552381D01*
X131700000Y-105552381D02*
X131700000Y-104552381D01*
X131604762Y-104695238D01*
X131509524Y-104790476D01*
X131414286Y-104838095D01*
X127466667Y-102428571D02*
X127133333Y-102428571D01*
X127133333Y-102952381D02*
X127133333Y-101952381D01*
X127609524Y-101952381D01*
X128514286Y-102952381D02*
X127942857Y-102952381D01*
X128228571Y-102952381D02*
X128228571Y-101952381D01*
X128133333Y-102095238D01*
X128038095Y-102190476D01*
X127942857Y-102238095D01*
X137902381Y-105283333D02*
X138616667Y-105283333D01*
X138759524Y-105330953D01*
X138854762Y-105426191D01*
X138902381Y-105569048D01*
X138902381Y-105664286D01*
X137997619Y-104854762D02*
X137950000Y-104807143D01*
X137902381Y-104711905D01*
X137902381Y-104473809D01*
X137950000Y-104378571D01*
X137997619Y-104330952D01*
X138092857Y-104283333D01*
X138188095Y-104283333D01*
X138330952Y-104330952D01*
X138902381Y-104902381D01*
X138902381Y-104283333D01*
X130461905Y-97202381D02*
X130461905Y-96202381D01*
X130842858Y-96202381D01*
X130938096Y-96250000D01*
X130985715Y-96297619D01*
X131033334Y-96392857D01*
X131033334Y-96535714D01*
X130985715Y-96630952D01*
X130938096Y-96678571D01*
X130842858Y-96726190D01*
X130461905Y-96726190D01*
X131985715Y-97202381D02*
X131414286Y-97202381D01*
X131700000Y-97202381D02*
X131700000Y-96202381D01*
X131604762Y-96345238D01*
X131509524Y-96440476D01*
X131414286Y-96488095D01*
X137952381Y-96333333D02*
X138666667Y-96333333D01*
X138809524Y-96380953D01*
X138904762Y-96476191D01*
X138952381Y-96619048D01*
X138952381Y-96714286D01*
X138952381Y-95333333D02*
X138952381Y-95904762D01*
X138952381Y-95619048D02*
X137952381Y-95619048D01*
X138095238Y-95714286D01*
X138190476Y-95809524D01*
X138238095Y-95904762D01*
M02*
