G04 #@! TF.FileFunction,Copper,L1,Top,Signal*
%FSLAX46Y46*%
G04 Gerber Fmt 4.6, Leading zero omitted, Abs format (unit mm)*
G04 Created by KiCad (PCBNEW 4.0.5+dfsg1-4) date Sat Aug  4 04:34:50 2018*
%MOMM*%
%LPD*%
G01*
G04 APERTURE LIST*
%ADD10C,0.100000*%
%ADD11R,0.800000X0.750000*%
%ADD12R,1.800000X2.500000*%
%ADD13R,3.150000X2.000000*%
%ADD14C,2.400000*%
%ADD15R,2.400000X2.400000*%
%ADD16R,1.700000X1.700000*%
%ADD17O,1.700000X1.700000*%
%ADD18C,0.600000*%
%ADD19C,0.500000*%
%ADD20C,0.254000*%
G04 APERTURE END LIST*
D10*
D11*
X126950000Y-107800000D03*
X128450000Y-107800000D03*
D12*
X131200000Y-107000000D03*
X131200000Y-103000000D03*
D13*
X127800000Y-100000000D03*
X127800000Y-105000000D03*
D14*
X136300000Y-103300000D03*
D15*
X136300000Y-106800000D03*
D16*
X131200000Y-99500000D03*
X124500000Y-99250000D03*
D17*
X124500000Y-101790000D03*
X124500000Y-104330000D03*
D14*
X136300000Y-96000000D03*
X136300000Y-92500000D03*
D15*
X136300000Y-99500000D03*
D18*
X126900000Y-106800000D03*
D19*
X126950000Y-106850000D02*
X126950000Y-107800000D01*
X126900000Y-106800000D02*
X126950000Y-106850000D01*
X131200000Y-103000000D02*
X125830000Y-103000000D01*
X125830000Y-103000000D02*
X124500000Y-104330000D01*
X126950000Y-107800000D02*
X126900000Y-107750000D01*
X136300000Y-99500000D02*
X135400000Y-99500000D01*
X130750000Y-103750000D02*
X131500000Y-103000000D01*
X128450000Y-107800000D02*
X130400000Y-107800000D01*
X130400000Y-107800000D02*
X131200000Y-107000000D01*
X127800000Y-105000000D02*
X128450000Y-105650000D01*
X128450000Y-105650000D02*
X128450000Y-107800000D01*
X130800000Y-107400000D02*
X131200000Y-107000000D01*
X128500000Y-105700000D02*
X127800000Y-105000000D01*
X131200000Y-107000000D02*
X132600000Y-107000000D01*
X132600000Y-107000000D02*
X136300000Y-103300000D01*
X136300000Y-96000000D02*
X137300000Y-96000000D01*
X137300000Y-96000000D02*
X138500000Y-97200000D01*
X138500000Y-101100000D02*
X136300000Y-103300000D01*
X138500000Y-97200000D02*
X138500000Y-101100000D01*
X135800000Y-95500000D02*
X136300000Y-96000000D01*
X135800000Y-95500000D02*
X136300000Y-96000000D01*
X131200000Y-99500000D02*
X128300000Y-99500000D01*
X128300000Y-99500000D02*
X127800000Y-100000000D01*
D20*
G36*
X140290000Y-107990000D02*
X138135000Y-107990000D01*
X138135000Y-107085750D01*
X137976250Y-106927000D01*
X136427000Y-106927000D01*
X136427000Y-106947000D01*
X136173000Y-106947000D01*
X136173000Y-106927000D01*
X134623750Y-106927000D01*
X134465000Y-107085750D01*
X134465000Y-107990000D01*
X132747440Y-107990000D01*
X132747440Y-107855673D01*
X132882484Y-107828810D01*
X132938675Y-107817633D01*
X133225790Y-107625790D01*
X134465000Y-106386580D01*
X134465000Y-106514250D01*
X134623750Y-106673000D01*
X136173000Y-106673000D01*
X136173000Y-106653000D01*
X136427000Y-106653000D01*
X136427000Y-106673000D01*
X137976250Y-106673000D01*
X138135000Y-106514250D01*
X138135000Y-105473691D01*
X138038327Y-105240302D01*
X137859699Y-105061673D01*
X137626310Y-104965000D01*
X137075605Y-104965000D01*
X137338086Y-104856545D01*
X137854730Y-104340801D01*
X138134681Y-103666605D01*
X138135318Y-102936597D01*
X138070896Y-102780684D01*
X139125787Y-101725792D01*
X139125790Y-101725790D01*
X139317633Y-101438675D01*
X139328810Y-101382484D01*
X139385001Y-101100000D01*
X139385000Y-101099995D01*
X139385000Y-97200005D01*
X139385001Y-97200000D01*
X139317633Y-96861325D01*
X139160254Y-96625790D01*
X139125790Y-96574210D01*
X139125787Y-96574208D01*
X138098098Y-95546519D01*
X137856545Y-94961914D01*
X137340801Y-94445270D01*
X136870215Y-94249865D01*
X137338086Y-94056545D01*
X137854730Y-93540801D01*
X138134681Y-92866605D01*
X138135318Y-92136597D01*
X137856545Y-91461914D01*
X137605070Y-91210000D01*
X140290000Y-91210000D01*
X140290000Y-107990000D01*
X140290000Y-107990000D01*
G37*
X140290000Y-107990000D02*
X138135000Y-107990000D01*
X138135000Y-107085750D01*
X137976250Y-106927000D01*
X136427000Y-106927000D01*
X136427000Y-106947000D01*
X136173000Y-106947000D01*
X136173000Y-106927000D01*
X134623750Y-106927000D01*
X134465000Y-107085750D01*
X134465000Y-107990000D01*
X132747440Y-107990000D01*
X132747440Y-107855673D01*
X132882484Y-107828810D01*
X132938675Y-107817633D01*
X133225790Y-107625790D01*
X134465000Y-106386580D01*
X134465000Y-106514250D01*
X134623750Y-106673000D01*
X136173000Y-106673000D01*
X136173000Y-106653000D01*
X136427000Y-106653000D01*
X136427000Y-106673000D01*
X137976250Y-106673000D01*
X138135000Y-106514250D01*
X138135000Y-105473691D01*
X138038327Y-105240302D01*
X137859699Y-105061673D01*
X137626310Y-104965000D01*
X137075605Y-104965000D01*
X137338086Y-104856545D01*
X137854730Y-104340801D01*
X138134681Y-103666605D01*
X138135318Y-102936597D01*
X138070896Y-102780684D01*
X139125787Y-101725792D01*
X139125790Y-101725790D01*
X139317633Y-101438675D01*
X139328810Y-101382484D01*
X139385001Y-101100000D01*
X139385000Y-101099995D01*
X139385000Y-97200005D01*
X139385001Y-97200000D01*
X139317633Y-96861325D01*
X139160254Y-96625790D01*
X139125790Y-96574210D01*
X139125787Y-96574208D01*
X138098098Y-95546519D01*
X137856545Y-94961914D01*
X137340801Y-94445270D01*
X136870215Y-94249865D01*
X137338086Y-94056545D01*
X137854730Y-93540801D01*
X138134681Y-92866605D01*
X138135318Y-92136597D01*
X137856545Y-91461914D01*
X137605070Y-91210000D01*
X140290000Y-91210000D01*
X140290000Y-107990000D01*
G36*
X127565000Y-106826737D02*
X127476309Y-106790000D01*
X127235750Y-106790000D01*
X127077000Y-106948750D01*
X127077000Y-107673000D01*
X127097000Y-107673000D01*
X127097000Y-107927000D01*
X127077000Y-107927000D01*
X127077000Y-107947000D01*
X126823000Y-107947000D01*
X126823000Y-107927000D01*
X126803000Y-107927000D01*
X126803000Y-107673000D01*
X126823000Y-107673000D01*
X126823000Y-106948750D01*
X126664250Y-106790000D01*
X126510000Y-106790000D01*
X126510000Y-106647440D01*
X127565000Y-106647440D01*
X127565000Y-106826737D01*
X127565000Y-106826737D01*
G37*
X127565000Y-106826737D02*
X127476309Y-106790000D01*
X127235750Y-106790000D01*
X127077000Y-106948750D01*
X127077000Y-107673000D01*
X127097000Y-107673000D01*
X127097000Y-107927000D01*
X127077000Y-107927000D01*
X127077000Y-107947000D01*
X126823000Y-107947000D01*
X126823000Y-107927000D01*
X126803000Y-107927000D01*
X126803000Y-107673000D01*
X126823000Y-107673000D01*
X126823000Y-106948750D01*
X126664250Y-106790000D01*
X126510000Y-106790000D01*
X126510000Y-106647440D01*
X127565000Y-106647440D01*
X127565000Y-106826737D01*
G36*
X134745270Y-91459199D02*
X134465319Y-92133395D01*
X134464682Y-92863403D01*
X134743455Y-93538086D01*
X135259199Y-94054730D01*
X135729785Y-94250135D01*
X135261914Y-94443455D01*
X134745270Y-94959199D01*
X134465319Y-95633395D01*
X134464682Y-96363403D01*
X134743455Y-97038086D01*
X135259199Y-97554730D01*
X135524758Y-97665000D01*
X134973690Y-97665000D01*
X134740301Y-97761673D01*
X134561673Y-97940302D01*
X134465000Y-98173691D01*
X134465000Y-99214250D01*
X134623750Y-99373000D01*
X136173000Y-99373000D01*
X136173000Y-99353000D01*
X136427000Y-99353000D01*
X136427000Y-99373000D01*
X136447000Y-99373000D01*
X136447000Y-99627000D01*
X136427000Y-99627000D01*
X136427000Y-101176250D01*
X136585750Y-101335000D01*
X137013421Y-101335000D01*
X136819580Y-101528840D01*
X136666605Y-101465319D01*
X135936597Y-101464682D01*
X135261914Y-101743455D01*
X134745270Y-102259199D01*
X134465319Y-102933395D01*
X134464682Y-103663403D01*
X134529104Y-103819317D01*
X132723841Y-105624580D01*
X132703162Y-105514683D01*
X132564090Y-105298559D01*
X132351890Y-105153569D01*
X132100000Y-105102560D01*
X130300000Y-105102560D01*
X130064683Y-105146838D01*
X130022440Y-105174021D01*
X130022440Y-104822350D01*
X130173690Y-104885000D01*
X130914250Y-104885000D01*
X131073000Y-104726250D01*
X131073000Y-103127000D01*
X131327000Y-103127000D01*
X131327000Y-104726250D01*
X131485750Y-104885000D01*
X132226310Y-104885000D01*
X132459699Y-104788327D01*
X132638327Y-104609698D01*
X132735000Y-104376309D01*
X132735000Y-103285750D01*
X132576250Y-103127000D01*
X131327000Y-103127000D01*
X131073000Y-103127000D01*
X129823750Y-103127000D01*
X129665000Y-103285750D01*
X129665000Y-103429608D01*
X129626890Y-103403569D01*
X129375000Y-103352560D01*
X126225000Y-103352560D01*
X125989683Y-103396838D01*
X125773559Y-103535910D01*
X125762131Y-103552636D01*
X125381358Y-103134817D01*
X125238447Y-103067702D01*
X125579147Y-102840054D01*
X125901054Y-102358285D01*
X126014093Y-101790000D01*
X125975694Y-101596954D01*
X126225000Y-101647440D01*
X129375000Y-101647440D01*
X129610317Y-101603162D01*
X129696465Y-101547727D01*
X129665000Y-101623691D01*
X129665000Y-102714250D01*
X129823750Y-102873000D01*
X131073000Y-102873000D01*
X131073000Y-101273750D01*
X131327000Y-101273750D01*
X131327000Y-102873000D01*
X132576250Y-102873000D01*
X132735000Y-102714250D01*
X132735000Y-101623691D01*
X132638327Y-101390302D01*
X132459699Y-101211673D01*
X132226310Y-101115000D01*
X131485750Y-101115000D01*
X131327000Y-101273750D01*
X131073000Y-101273750D01*
X130914250Y-101115000D01*
X130173690Y-101115000D01*
X129983171Y-101193916D01*
X130022440Y-101000000D01*
X130022440Y-100894728D01*
X130098110Y-100946431D01*
X130350000Y-100997440D01*
X132050000Y-100997440D01*
X132285317Y-100953162D01*
X132501441Y-100814090D01*
X132646431Y-100601890D01*
X132697440Y-100350000D01*
X132697440Y-99785750D01*
X134465000Y-99785750D01*
X134465000Y-100826309D01*
X134561673Y-101059698D01*
X134740301Y-101238327D01*
X134973690Y-101335000D01*
X136014250Y-101335000D01*
X136173000Y-101176250D01*
X136173000Y-99627000D01*
X134623750Y-99627000D01*
X134465000Y-99785750D01*
X132697440Y-99785750D01*
X132697440Y-98650000D01*
X132653162Y-98414683D01*
X132514090Y-98198559D01*
X132301890Y-98053569D01*
X132050000Y-98002560D01*
X130350000Y-98002560D01*
X130114683Y-98046838D01*
X129898559Y-98185910D01*
X129753569Y-98398110D01*
X129737200Y-98478941D01*
X129626890Y-98403569D01*
X129375000Y-98352560D01*
X129276785Y-98352560D01*
X129502046Y-98202046D01*
X129655954Y-97971705D01*
X129710000Y-97700000D01*
X129710000Y-94794092D01*
X133294092Y-91210000D01*
X134994904Y-91210000D01*
X134745270Y-91459199D01*
X134745270Y-91459199D01*
G37*
X134745270Y-91459199D02*
X134465319Y-92133395D01*
X134464682Y-92863403D01*
X134743455Y-93538086D01*
X135259199Y-94054730D01*
X135729785Y-94250135D01*
X135261914Y-94443455D01*
X134745270Y-94959199D01*
X134465319Y-95633395D01*
X134464682Y-96363403D01*
X134743455Y-97038086D01*
X135259199Y-97554730D01*
X135524758Y-97665000D01*
X134973690Y-97665000D01*
X134740301Y-97761673D01*
X134561673Y-97940302D01*
X134465000Y-98173691D01*
X134465000Y-99214250D01*
X134623750Y-99373000D01*
X136173000Y-99373000D01*
X136173000Y-99353000D01*
X136427000Y-99353000D01*
X136427000Y-99373000D01*
X136447000Y-99373000D01*
X136447000Y-99627000D01*
X136427000Y-99627000D01*
X136427000Y-101176250D01*
X136585750Y-101335000D01*
X137013421Y-101335000D01*
X136819580Y-101528840D01*
X136666605Y-101465319D01*
X135936597Y-101464682D01*
X135261914Y-101743455D01*
X134745270Y-102259199D01*
X134465319Y-102933395D01*
X134464682Y-103663403D01*
X134529104Y-103819317D01*
X132723841Y-105624580D01*
X132703162Y-105514683D01*
X132564090Y-105298559D01*
X132351890Y-105153569D01*
X132100000Y-105102560D01*
X130300000Y-105102560D01*
X130064683Y-105146838D01*
X130022440Y-105174021D01*
X130022440Y-104822350D01*
X130173690Y-104885000D01*
X130914250Y-104885000D01*
X131073000Y-104726250D01*
X131073000Y-103127000D01*
X131327000Y-103127000D01*
X131327000Y-104726250D01*
X131485750Y-104885000D01*
X132226310Y-104885000D01*
X132459699Y-104788327D01*
X132638327Y-104609698D01*
X132735000Y-104376309D01*
X132735000Y-103285750D01*
X132576250Y-103127000D01*
X131327000Y-103127000D01*
X131073000Y-103127000D01*
X129823750Y-103127000D01*
X129665000Y-103285750D01*
X129665000Y-103429608D01*
X129626890Y-103403569D01*
X129375000Y-103352560D01*
X126225000Y-103352560D01*
X125989683Y-103396838D01*
X125773559Y-103535910D01*
X125762131Y-103552636D01*
X125381358Y-103134817D01*
X125238447Y-103067702D01*
X125579147Y-102840054D01*
X125901054Y-102358285D01*
X126014093Y-101790000D01*
X125975694Y-101596954D01*
X126225000Y-101647440D01*
X129375000Y-101647440D01*
X129610317Y-101603162D01*
X129696465Y-101547727D01*
X129665000Y-101623691D01*
X129665000Y-102714250D01*
X129823750Y-102873000D01*
X131073000Y-102873000D01*
X131073000Y-101273750D01*
X131327000Y-101273750D01*
X131327000Y-102873000D01*
X132576250Y-102873000D01*
X132735000Y-102714250D01*
X132735000Y-101623691D01*
X132638327Y-101390302D01*
X132459699Y-101211673D01*
X132226310Y-101115000D01*
X131485750Y-101115000D01*
X131327000Y-101273750D01*
X131073000Y-101273750D01*
X130914250Y-101115000D01*
X130173690Y-101115000D01*
X129983171Y-101193916D01*
X130022440Y-101000000D01*
X130022440Y-100894728D01*
X130098110Y-100946431D01*
X130350000Y-100997440D01*
X132050000Y-100997440D01*
X132285317Y-100953162D01*
X132501441Y-100814090D01*
X132646431Y-100601890D01*
X132697440Y-100350000D01*
X132697440Y-99785750D01*
X134465000Y-99785750D01*
X134465000Y-100826309D01*
X134561673Y-101059698D01*
X134740301Y-101238327D01*
X134973690Y-101335000D01*
X136014250Y-101335000D01*
X136173000Y-101176250D01*
X136173000Y-99627000D01*
X134623750Y-99627000D01*
X134465000Y-99785750D01*
X132697440Y-99785750D01*
X132697440Y-98650000D01*
X132653162Y-98414683D01*
X132514090Y-98198559D01*
X132301890Y-98053569D01*
X132050000Y-98002560D01*
X130350000Y-98002560D01*
X130114683Y-98046838D01*
X129898559Y-98185910D01*
X129753569Y-98398110D01*
X129737200Y-98478941D01*
X129626890Y-98403569D01*
X129375000Y-98352560D01*
X129276785Y-98352560D01*
X129502046Y-98202046D01*
X129655954Y-97971705D01*
X129710000Y-97700000D01*
X129710000Y-94794092D01*
X133294092Y-91210000D01*
X134994904Y-91210000D01*
X134745270Y-91459199D01*
G36*
X124627000Y-104203000D02*
X124647000Y-104203000D01*
X124647000Y-104457000D01*
X124627000Y-104457000D01*
X124627000Y-104477000D01*
X124373000Y-104477000D01*
X124373000Y-104457000D01*
X124353000Y-104457000D01*
X124353000Y-104203000D01*
X124373000Y-104203000D01*
X124373000Y-104183000D01*
X124627000Y-104183000D01*
X124627000Y-104203000D01*
X124627000Y-104203000D01*
G37*
X124627000Y-104203000D02*
X124647000Y-104203000D01*
X124647000Y-104457000D01*
X124627000Y-104457000D01*
X124627000Y-104477000D01*
X124373000Y-104477000D01*
X124373000Y-104457000D01*
X124353000Y-104457000D01*
X124353000Y-104203000D01*
X124373000Y-104203000D01*
X124373000Y-104183000D01*
X124627000Y-104183000D01*
X124627000Y-104203000D01*
M02*
